<svg width="74px" height="100px" viewBox="0 0 74 100">
  <path d="M36.68,0 C16.457,0 0,16.454 0,36.678 C0,62.831 31.386,96.842 32.724,98.275 C33.745,99.375 35.177,100.001 36.68,100.001 C38.179,100.001 39.611,99.376 40.635,98.275 C41.973,96.843 73.36,62.831 73.36,36.678 C73.359,16.453 56.903,0 36.68,0 L36.68,0 Z M22.202,35.523 C22.202,27.525 28.684,21.041 36.68,21.041 C44.676,21.041 51.158,27.523 51.158,35.523 C51.158,43.519 44.677,50.001 36.68,50.001 C28.685,50 22.202,43.518 22.202,35.523 L22.202,35.523 Z" />
</svg>
